<svg xmlns="http://www.w3.org/2000/svg" width="36" height="36" viewBox="0 0 36 36"><g transform="translate(-942.893 -522.724)"><path d="M970.763,533.6a4.022,4.022,0,0,0-2.313-2.3,6.768,6.768,0,0,0-2.264-.418c-1.285-.058-1.671-.071-4.925-.071h0c-3.255,0-3.64.013-4.925.071a6.768,6.768,0,0,0-2.264.418,4.018,4.018,0,0,0-2.311,2.3,6.666,6.666,0,0,0-.424,2.255c-.058,1.28-.071,1.664-.071,4.906s.013,3.625.071,4.905a6.676,6.676,0,0,0,.424,2.255,4.023,4.023,0,0,0,2.311,2.307,6.775,6.775,0,0,0,2.265.42c1.285.058,1.671.071,4.925.071s3.64-.013,4.925-.071a6.8,6.8,0,0,0,2.264-.418,4.026,4.026,0,0,0,2.313-2.3,6.729,6.729,0,0,0,.423-2.255c.058-1.28.071-1.664.071-4.906s-.013-3.625-.071-4.905A6.719,6.719,0,0,0,970.763,533.6Zm-9.4,13.329a6.171,6.171,0,0,1-.1-12.341h0a6.171,6.171,0,0,1,.1,12.341Zm6.4-11.169a1.472,1.472,0,1,1,1.472-1.472A1.472,1.472,0,0,1,967.762,535.759Z" transform="translate(0)" fill="#ccc"/><path d="M960.77,536.421a3.782,3.782,0,1,0,3.75,3.782A3.781,3.781,0,0,0,960.77,536.421Z" transform="translate(0.571 0.556)" fill="#ccc"/><path d="M960.893,522.724a18,18,0,1,0,18,18A18,18,0,0,0,960.893,522.724Zm12.188,22.911a8.65,8.65,0,0,1-.552,2.871,6.064,6.064,0,0,1-3.475,3.456,8.744,8.744,0,0,1-2.884.55c-1.266.058-1.672.071-4.9.071s-3.63-.013-4.9-.071a8.745,8.745,0,0,1-2.884-.55,6.062,6.062,0,0,1-3.474-3.456,8.65,8.65,0,0,1-.552-2.871c-.058-1.265-.071-1.664-.071-4.876s.013-3.614.071-4.876a8.646,8.646,0,0,1,.552-2.872,6.058,6.058,0,0,1,3.473-3.459,8.744,8.744,0,0,1,2.884-.55c1.266-.058,1.671-.071,4.9-.071h0c3.226,0,3.63.013,4.9.071a8.747,8.747,0,0,1,2.884.55,6.061,6.061,0,0,1,3.474,3.46,8.646,8.646,0,0,1,.552,2.872c.058,1.265.071,1.664.071,4.876S973.139,544.373,973.081,545.635Z" fill="#ccc"/></g></svg>