<svg xmlns="http://www.w3.org/2000/svg" width="36" height="36" viewBox="0 0 36 36"><path d="M36,18A18,18,0,1,1,18,0,18,18,0,0,1,36,18ZM14.706,27.495A12.265,12.265,0,0,0,27.054,15.147c0-.189,0-.378-.009-.558a8.891,8.891,0,0,0,2.169-2.25,8.808,8.808,0,0,1-2.493.684,4.337,4.337,0,0,0,1.908-2.4,8.788,8.788,0,0,1-2.754,1.053,4.342,4.342,0,0,0-7.506,2.97,3.977,3.977,0,0,0,.117.99A12.311,12.311,0,0,1,9.54,11.1a4.338,4.338,0,0,0,1.35,5.787,4.263,4.263,0,0,1-1.962-.54V16.4a4.345,4.345,0,0,0,3.483,4.257,4.326,4.326,0,0,1-1.143.153,4.143,4.143,0,0,1-.819-.081,4.333,4.333,0,0,0,4.05,3.015A8.724,8.724,0,0,1,9.108,25.6a7.893,7.893,0,0,1-1.035-.063,12.091,12.091,0,0,0,6.633,1.962" fill="#ccc"/></svg>